<?xml version="1.0" standalone="no"?>
<!DOCTYPE svg PUBLIC "-//W3C//DTD SVG 20010904//EN"
 "http://www.w3.org/TR/2001/REC-SVG-20010904/DTD/svg10.dtd">
<svg version="1.0" xmlns="http://www.w3.org/2000/svg"
 width="400.000000pt" height="150.000000pt" viewBox="0 0 400.000000 150.000000"
 preserveAspectRatio="xMidYMid meet">
<metadata>
Created by potrace 1.16, written by Peter Selinger 2001-2019
</metadata>
<g transform="translate(0.000000,150.000000) scale(0.100000,-0.100000)"
fill="#000000" stroke="none">
<path d="M2141 1276 c-7 -9 -22 -16 -32 -16 -25 0 -26 -48 -1 -57 9 -3 24 -12
33 -20 14 -12 17 -10 22 21 3 19 2 47 -2 62 -6 23 -8 25 -20 10z"/>
<path d="M2450 1281 c0 -5 -8 -8 -17 -7 -11 0 -17 -5 -15 -13 2 -8 -3 -18 -9
-22 -9 -5 -10 -11 -2 -21 6 -7 11 -17 12 -22 0 -5 10 -14 23 -20 18 -9 29 -9
51 2 15 7 24 18 21 24 -4 6 0 14 7 19 11 7 12 11 1 17 -7 5 -12 15 -10 23 2 8
-4 13 -14 13 -10 -1 -18 2 -18 7 0 5 -7 9 -15 9 -8 0 -15 -4 -15 -9z m38 -55
c-2 -13 -10 -21 -23 -21 -23 0 -33 34 -14 45 20 13 40 -1 37 -24z"/>
<path d="M3032 1278 c-9 -9 -8 -16 5 -30 15 -17 15 -19 -3 -39 -16 -17 -16
-22 -4 -29 20 -13 26 -12 40 5 12 14 15 14 30 0 17 -15 50 -11 50 6 0 4 -9 14
-20 22 -19 14 -19 14 6 38 23 21 23 24 7 30 -10 3 -28 -1 -41 -9 -20 -13 -24
-13 -40 2 -14 12 -21 13 -30 4z"/>
<path d="M3404 1255 c-18 -34 -19 -35 -34 -15 -10 13 -19 17 -29 11 -11 -7
-10 -15 8 -45 13 -20 29 -36 36 -36 8 0 26 22 42 50 15 27 33 50 38 50 13 0
-17 20 -31 20 -6 0 -19 -16 -30 -35z"/>
<path d="M3669 1263 c-6 -16 -15 -35 -19 -44 -10 -20 -3 -29 21 -29 9 0 20 -8
24 -17 6 -17 7 -17 19 0 7 9 21 17 31 17 18 0 17 17 -5 75 -14 36 -57 35 -71
-2z"/>
<path d="M240 1230 c0 -38 4 -50 15 -50 8 0 15 9 15 20 0 25 7 25 48 0 18 -11
34 -20 36 -20 2 0 6 23 8 50 1 28 1 50 -2 50 -3 0 -24 -11 -47 -25 l-43 -24 0
25 c0 15 -6 24 -15 24 -11 0 -15 -12 -15 -50z"/>
<path d="M640 1255 l0 -25 -40 20 c-21 11 -42 20 -45 20 -3 0 -5 -21 -5 -46
l0 -46 34 21 c41 26 46 26 46 1 0 -13 7 -20 19 -20 16 0 20 9 23 50 2 42 0 50
-14 50 -13 0 -18 -8 -18 -25z"/>
<path d="M1500 1231 c0 -28 2 -51 5 -51 9 0 75 45 75 51 0 3 -18 15 -40 28
l-40 22 0 -50z"/>
<path d="M1790 1230 c0 -47 2 -50 25 -50 24 0 25 2 23 50 -3 44 -6 50 -25 50
-21 0 -23 -5 -23 -50z"/>
<path d="M1856 1258 c-3 -13 -6 -35 -6 -50 0 -23 4 -28 25 -28 23 0 25 3 25
50 0 42 -3 50 -19 50 -11 0 -21 -9 -25 -22z"/>
<path d="M2193 1262 c10 -10 17 -27 16 -38 -1 -15 -2 -14 -8 5 -4 14 -13 27
-21 29 -12 4 -13 3 -2 -10 7 -9 9 -24 5 -33 -5 -14 -3 -16 7 -10 10 6 12 4 7
-11 -7 -18 -7 -18 8 0 18 24 19 58 3 74 -19 19 -33 14 -15 -6z"/>
<path d="M2720 1270 c0 -5 5 -10 10 -10 6 0 10 5 10 10 0 6 -4 10 -10 10 -5 0
-10 -4 -10 -10z"/>
<path d="M2763 1268 c2 -7 16 -13 32 -13 16 0 30 6 33 13 2 8 -8 12 -33 12
-25 0 -35 -4 -32 -12z"/>
<path d="M883 1252 c-18 -9 -33 -18 -33 -22 0 -13 62 -42 69 -32 4 7 12 8 21
2 25 -16 30 -11 30 30 0 41 -5 46 -30 30 -8 -5 -17 -5 -20 -1 -3 5 -20 1 -37
-7z"/>
<path d="M1170 1230 c0 -41 5 -46 30 -30 9 6 17 5 21 -2 6 -10 69 19 69 32 0
13 -63 42 -69 32 -4 -7 -12 -8 -21 -2 -25 16 -30 11 -30 -30z"/>
<path d="M2720 1230 c0 -5 7 -10 16 -10 8 0 12 5 9 10 -3 6 -10 10 -16 10 -5
0 -9 -4 -9 -10z"/>
<path d="M2760 1230 c0 -5 16 -10 35 -10 19 0 35 5 35 10 0 6 -16 10 -35 10
-19 0 -35 -4 -35 -10z"/>
<path d="M2725 1201 c-13 -12 0 -17 51 -19 41 -2 55 1 52 10 -5 12 -93 20
-103 9z"/>
<path d="M341 1144 c-19 -13 -30 -24 -25 -24 11 0 74 38 74 45 0 10 -15 3 -49
-21z"/>
<path d="M651 1144 c-19 -13 -30 -24 -25 -24 11 0 74 38 74 45 0 10 -15 3 -49
-21z"/>
<path d="M961 1144 c-19 -13 -30 -24 -25 -24 11 0 74 38 74 45 0 10 -15 3 -49
-21z"/>
<path d="M1271 1144 c-19 -13 -30 -24 -25 -24 11 0 74 38 74 45 0 10 -15 3
-49 -21z"/>
<path d="M1581 1144 c-39 -27 -34 -31 9 -9 17 9 30 20 30 25 0 12 2 13 -39
-16z"/>
<path d="M1891 1144 c-39 -27 -34 -31 9 -9 17 9 30 20 30 25 0 12 2 13 -39
-16z"/>
<path d="M2201 1144 c-39 -27 -34 -31 9 -9 17 9 30 20 30 25 0 12 2 13 -39
-16z"/>
<path d="M2511 1144 c-39 -27 -34 -31 9 -9 17 9 30 20 30 25 0 12 2 13 -39
-16z"/>
<path d="M2821 1144 c-39 -27 -34 -31 9 -9 17 9 30 20 30 25 0 12 2 13 -39
-16z"/>
<path d="M3131 1144 c-39 -27 -34 -31 9 -9 17 9 30 20 30 25 0 12 2 13 -39
-16z"/>
<path d="M3441 1144 c-39 -27 -34 -31 9 -9 17 9 30 20 30 25 0 12 2 13 -39
-16z"/>
<path d="M3751 1144 c-39 -27 -34 -31 9 -9 17 9 30 20 30 25 0 12 2 13 -39
-16z"/>
<path d="M3080 987 c-24 -8 -36 -19 -38 -34 -4 -25 23 -33 31 -10 2 6 8 9 12
5 4 -4 0 -14 -8 -23 -17 -17 -13 -45 8 -45 33 0 62 79 34 96 -8 4 -7 9 2 15
19 12 1 10 -41 -4z"/>
<path d="M3728 993 c7 -3 16 -2 19 1 4 3 -2 6 -13 5 -11 0 -14 -3 -6 -6z"/>
<path d="M2759 983 c0 -5 -2 -27 -4 -51 -2 -32 1 -45 12 -49 21 -8 33 16 29
57 -3 19 -5 38 -5 43 -1 4 -8 7 -16 7 -8 0 -15 -3 -16 -7z"/>
<path d="M277 960 c-9 -11 -24 -20 -32 -20 -19 0 -19 -14 -1 -29 8 -6 11 -22
8 -37 -4 -24 -3 -25 18 -14 17 9 29 9 46 1 22 -10 24 -8 24 16 0 15 7 35 17
45 15 17 15 18 -2 18 -10 0 -28 9 -40 20 -21 20 -21 20 -38 0z"/>
<path d="M580 965 c-10 -12 -11 -21 -3 -33 8 -13 5 -24 -11 -45 -21 -28 -21
-29 -2 -43 51 -37 124 7 82 49 -8 7 -14 29 -13 48 2 28 -2 35 -19 37 -11 2
-27 -4 -34 -13z"/>
<path d="M2115 944 c-25 -21 -34 -34 -24 -34 12 0 15 -7 11 -25 -3 -20 0 -25
17 -25 14 0 21 6 21 20 0 11 7 20 15 20 8 0 15 -9 15 -20 0 -14 7 -20 21 -20
17 0 20 5 17 25 -4 16 0 25 11 27 10 2 3 13 -25 34 l-39 32 -40 -34z"/>
<path d="M866 944 c-27 -24 -28 -27 -12 -42 15 -15 17 -15 34 1 14 14 14 19 4
26 -11 6 -10 10 4 15 28 11 54 -3 54 -29 0 -27 -24 -45 -51 -38 -26 7 -24 -14
1 -22 53 -17 94 60 52 98 -26 24 -52 21 -86 -9z"/>
<path d="M1192 954 c-28 -19 -29 -57 -2 -84 21 -21 29 -23 54 -14 22 9 20 27
-3 21 -27 -7 -51 11 -51 37 0 27 23 40 53 30 15 -5 17 -8 6 -15 -12 -7 -11
-11 2 -25 14 -13 20 -14 38 -3 21 14 20 14 -12 41 -37 32 -53 34 -85 12z"/>
<path d="M1492 958 c-14 -14 -15 -47 -3 -67 5 -7 21 -14 37 -15 16 -1 35 -5
42 -10 18 -11 27 0 14 17 -6 7 -9 22 -6 34 11 40 -54 71 -84 41z m56 -31 c4
-20 -25 -34 -40 -19 -15 15 -1 44 19 40 10 -2 19 -11 21 -21z"/>
<path d="M1790 960 c0 -5 25 -10 55 -10 30 0 55 5 55 10 0 6 -25 10 -55 10
-30 0 -55 -4 -55 -10z"/>
<path d="M3368 944 c-21 -15 -38 -30 -38 -33 0 -3 18 -19 40 -34 31 -22 40
-25 40 -13 0 9 9 16 20 16 16 0 20 7 20 30 0 23 -5 30 -19 30 -11 0 -21 7 -23
15 -2 12 -10 10 -40 -11z"/>
<path d="M3690 955 c0 -8 -9 -15 -20 -15 -16 0 -20 -7 -20 -30 0 -23 4 -30 20
-30 12 0 20 -7 20 -16 0 -15 26 -1 80 43 5 5 -32 36 -62 54 -14 7 -18 6 -18
-6z"/>
<path d="M2440 951 l-45 -6 35 -22 c33 -21 35 -21 63 -5 16 9 33 23 39 30 11
13 -9 14 -92 3z"/>
<path d="M1796 918 c-3 -13 -6 -33 -6 -46 0 -22 3 -23 53 -20 l52 3 3 43 3 42
-49 0 c-43 0 -50 -3 -56 -22z m21 -35 c-3 -10 -5 -2 -5 17 0 19 2 27 5 18 2
-10 2 -26 0 -35z m30 0 c-3 -10 -5 -2 -5 17 0 19 2 27 5 18 2 -10 2 -26 0 -35z
m30 0 c-3 -10 -5 -2 -5 17 0 19 2 27 5 18 2 -10 2 -26 0 -35z"/>
<path d="M2400 901 l0 -31 65 0 65 0 0 31 0 31 -35 -22 c-32 -20 -38 -21 -53
-8 -35 31 -42 30 -42 -1z"/>
<path d="M2754 859 c-3 -6 -1 -16 4 -21 13 -13 45 8 36 23 -7 12 -31 11 -40
-2z"/>
<path d="M3066 861 c-3 -5 0 -13 7 -19 15 -13 42 1 33 17 -9 13 -33 15 -40 2z"/>
<path d="M370 841 c0 -5 -14 -14 -30 -21 -17 -7 -29 -15 -26 -17 7 -7 66 26
66 37 0 6 -2 10 -5 10 -3 0 -5 -4 -5 -9z"/>
<path d="M680 841 c0 -5 -14 -14 -30 -21 -17 -7 -29 -15 -26 -17 7 -7 66 26
66 37 0 6 -2 10 -5 10 -3 0 -5 -4 -5 -9z"/>
<path d="M990 841 c0 -5 -14 -14 -30 -21 -17 -7 -29 -15 -26 -17 7 -7 66 26
66 37 0 6 -2 10 -5 10 -3 0 -5 -4 -5 -9z"/>
<path d="M1300 841 c0 -5 -14 -14 -30 -21 -17 -7 -29 -15 -26 -17 7 -7 66 26
66 37 0 6 -2 10 -5 10 -3 0 -5 -4 -5 -9z"/>
<path d="M1570 815 c-14 -8 -20 -14 -14 -15 5 0 19 7 30 15 24 18 16 19 -16 0z"/>
<path d="M1880 815 c-14 -8 -20 -14 -14 -15 5 0 19 7 30 15 24 18 16 19 -16 0z"/>
<path d="M2190 815 c-14 -8 -20 -14 -14 -15 5 0 19 7 30 15 24 18 16 19 -16 0z"/>
<path d="M2500 815 c-14 -8 -20 -14 -14 -15 5 0 19 7 30 15 24 18 16 19 -16 0z"/>
<path d="M2810 815 c-14 -8 -20 -14 -14 -15 5 0 19 7 30 15 24 18 16 19 -16 0z"/>
<path d="M3116 815 c-11 -8 -15 -15 -10 -15 6 0 19 7 30 15 10 8 15 14 9 14
-5 0 -19 -6 -29 -14z"/>
<path d="M3426 815 c-11 -8 -15 -15 -10 -15 6 0 19 7 30 15 10 8 15 14 9 14
-5 0 -19 -6 -29 -14z"/>
<path d="M3736 815 c-11 -8 -15 -15 -10 -15 6 0 19 7 30 15 10 8 15 14 9 14
-5 0 -19 -6 -29 -14z"/>
<path d="M328 673 c7 -3 16 -2 19 1 4 3 -2 6 -13 5 -11 0 -14 -3 -6 -6z"/>
<path d="M638 673 c7 -3 16 -2 19 1 4 3 -2 6 -13 5 -11 0 -14 -3 -6 -6z"/>
<path d="M948 673 c7 -3 16 -2 19 1 4 3 -2 6 -13 5 -11 0 -14 -3 -6 -6z"/>
<path d="M3418 673 c7 -3 16 -2 19 1 4 3 -2 6 -13 5 -11 0 -14 -3 -6 -6z"/>
<path d="M3728 673 c7 -3 16 -2 19 1 4 3 -2 6 -13 5 -11 0 -14 -3 -6 -6z"/>
<path d="M2453 613 c-22 -8 -14 -18 12 -18 14 0 25 3 25 6 0 10 -23 17 -37 12z"/>
<path d="M3420 570 c-6 -11 -8 -20 -6 -20 3 0 10 9 16 20 6 11 8 20 6 20 -3 0
-10 -9 -16 -20z"/>
<path d="M1520 550 c-25 -16 -40 -30 -35 -30 6 0 30 14 55 30 25 16 41 30 35
30 -5 0 -30 -14 -55 -30z"/>
<path d="M2160 573 c0 -19 21 -27 33 -13 9 10 9 11 -2 5 -8 -4 -17 -2 -22 6
-6 9 -9 10 -9 2z"/>
<path d="M2405 570 c3 -5 8 -10 11 -10 2 0 4 5 4 10 0 6 -5 10 -11 10 -5 0 -7
-4 -4 -10z"/>
<path d="M2510 569 c0 -5 5 -7 10 -4 6 3 10 8 10 11 0 2 -4 4 -10 4 -5 0 -10
-5 -10 -11z"/>
<path d="M2778 573 c12 -2 30 -2 40 0 9 3 -1 5 -23 4 -22 0 -30 -2 -17 -4z"/>
<path d="M300 566 c0 -3 9 -10 20 -16 11 -6 20 -8 20 -6 0 3 -9 10 -20 16 -11
6 -20 8 -20 6z"/>
<path d="M574 554 c-18 -14 -18 -15 4 -4 12 6 22 13 22 15 0 8 -5 6 -26 -11z"/>
<path d="M2090 566 c0 -2 17 -14 38 -25 l37 -22 -28 26 c-25 22 -47 32 -47 21z"/>
<path d="M2198 548 c-10 -10 -14 -18 -9 -18 10 0 36 29 30 34 -2 1 -12 -6 -21
-16z"/>
<path d="M3349 553 c8 -16 8 -23 -2 -26 -6 -3 2 -6 20 -6 17 -1 35 3 38 9 4 6
-1 7 -11 3 -11 -4 -23 2 -36 18 -17 21 -18 21 -9 2z"/>
<path d="M1180 550 c-9 -6 -10 -10 -3 -10 6 0 15 5 18 10 8 12 4 12 -15 0z"/>
<path d="M3080 556 c0 -2 8 -10 18 -17 15 -13 16 -12 3 4 -13 16 -21 21 -21
13z"/>
<path d="M3653 553 c9 -2 23 -2 30 0 6 3 -1 5 -18 5 -16 0 -22 -2 -12 -5z"/>
<path d="M3723 553 c9 -2 23 -2 30 0 6 3 -1 5 -18 5 -16 0 -22 -2 -12 -5z"/>
<path d="M2410 532 c0 -9 7 -12 20 -9 10 3 20 1 22 -4 2 -6 18 -3 36 6 38 19
38 21 12 21 -11 0 -20 -4 -20 -8 0 -4 -7 -8 -15 -8 -8 0 -15 4 -15 8 0 4 -9 8
-20 8 -11 0 -20 -7 -20 -14z"/>
<path d="M3026 536 c3 -9 13 -16 22 -16 8 0 13 1 11 3 -2 1 -12 9 -22 16 -15
12 -17 12 -11 -3z"/>
<path d="M3129 533 c-13 -16 -12 -17 4 -4 16 13 21 21 13 21 -2 0 -10 -8 -17
-17z"/>
<path d="M245 530 c3 -5 10 -10 16 -10 5 0 9 5 9 10 0 6 -7 10 -16 10 -8 0
-12 -4 -9 -10z"/>
<path d="M375 530 c-3 -6 -23 -19 -43 -30 -26 -15 -30 -19 -12 -14 23 5 83 54
68 54 -4 0 -10 -5 -13 -10z"/>
<path d="M648 533 c7 -3 16 -2 19 1 4 3 -2 6 -13 5 -11 0 -14 -3 -6 -6z"/>
<path d="M685 530 c-3 -6 -23 -19 -43 -30 -26 -15 -30 -19 -12 -14 23 5 83 54
68 54 -4 0 -10 -5 -13 -10z"/>
<path d="M995 530 c-3 -6 -23 -19 -43 -30 -26 -15 -30 -19 -12 -14 23 5 83 54
68 54 -4 0 -10 -5 -13 -10z"/>
<path d="M1305 530 c-3 -6 -23 -19 -43 -30 -26 -15 -30 -19 -12 -14 23 5 83
54 68 54 -4 0 -10 -5 -13 -10z"/>
<path d="M1615 530 c-3 -6 -23 -19 -43 -30 -26 -15 -30 -19 -12 -14 23 5 83
54 68 54 -4 0 -10 -5 -13 -10z"/>
<path d="M1790 530 c0 -12 8 -12 35 0 18 8 17 9 -7 9 -16 1 -28 -3 -28 -9z"/>
<path d="M1863 533 c9 -2 23 -2 30 0 6 3 -1 5 -18 5 -16 0 -22 -2 -12 -5z"/>
<path d="M1925 530 c-3 -6 -23 -19 -43 -30 -26 -15 -30 -19 -12 -14 23 5 83
54 68 54 -4 0 -10 -5 -13 -10z"/>
<path d="M2235 530 c-3 -6 -23 -19 -43 -30 -26 -15 -30 -19 -12 -14 23 5 83
54 68 54 -4 0 -10 -5 -13 -10z"/>
<path d="M2545 530 c-3 -6 -23 -19 -43 -30 -26 -15 -30 -19 -12 -14 23 5 83
54 68 54 -4 0 -10 -5 -13 -10z"/>
<path d="M2725 530 c-3 -5 -1 -10 4 -10 6 0 11 5 11 10 0 6 -2 10 -4 10 -3 0
-8 -4 -11 -10z"/>
<path d="M2773 533 c9 -2 25 -2 35 0 9 3 1 5 -18 5 -19 0 -27 -2 -17 -5z"/>
<path d="M2855 530 c-3 -6 -23 -19 -43 -30 -26 -15 -30 -19 -12 -14 23 5 83
54 68 54 -4 0 -10 -5 -13 -10z"/>
<path d="M3165 530 c-3 -6 -23 -19 -43 -30 -26 -15 -30 -19 -12 -14 23 5 83
54 68 54 -4 0 -10 -5 -13 -10z"/>
<path d="M3475 530 c-3 -6 -23 -19 -43 -30 -26 -15 -30 -19 -12 -14 23 5 83
54 68 54 -4 0 -10 -5 -13 -10z"/>
<path d="M3785 530 c-3 -6 -23 -19 -43 -30 -26 -15 -30 -19 -12 -14 23 5 83
54 68 54 -4 0 -10 -5 -13 -10z"/>
<path d="M920 297 c14 -8 27 -12 30 -10 7 6 -23 23 -40 23 -8 0 -4 -6 10 -13z"/>
<path d="M1210 306 c0 -2 11 -6 25 -8 13 -3 22 -1 19 3 -5 9 -44 13 -44 5z"/>
<path d="M1507 303 c-3 -5 5 -8 18 -8 13 0 21 3 18 8 -2 4 -10 7 -18 7 -8 0
-16 -3 -18 -7z"/>
<path d="M3060 294 c-17 -9 -20 -14 -9 -14 9 0 22 7 29 15 15 18 13 18 -20 -1z"/>
<path d="M349 273 c-13 -16 -12 -17 4 -4 16 13 21 21 13 21 -2 0 -10 -8 -17
-17z"/>
<path d="M853 255 c17 -19 17 -19 35 0 16 18 16 18 0 6 -15 -11 -21 -11 -35 0
-17 12 -17 12 0 -6z"/>
<path d="M1253 255 c17 -19 17 -19 35 0 16 18 16 18 0 6 -15 -11 -21 -11 -35
0 -17 12 -17 12 0 -6z"/>
<path d="M2456 258 c3 -5 10 -6 15 -3 13 9 11 12 -6 12 -8 0 -12 -4 -9 -9z"/>
<path d="M3115 259 c-4 -6 -17 -14 -29 -19 -14 -6 -16 -9 -5 -9 9 -1 24 8 34
19 10 11 15 20 12 20 -3 0 -9 -5 -12 -11z"/>
<path d="M3330 265 c0 -8 37 -41 63 -56 29 -17 19 -4 -23 30 -22 17 -40 29
-40 26z"/>
<path d="M3721 234 c-24 -18 -39 -34 -34 -34 5 0 27 16 49 35 50 44 42 44 -15
-1z"/>
<path d="M1489 248 c7 -10 26 -18 42 -18 15 0 31 -4 34 -10 3 -5 14 -10 23
-10 11 0 6 6 -12 15 -15 8 -38 15 -50 15 -12 0 -28 6 -36 13 -12 10 -12 9 -1
-5z"/>
<path d="M2148 253 c7 -3 16 -2 19 1 4 3 -2 6 -13 5 -11 0 -14 -3 -6 -6z"/>
<path d="M2757 238 c2 -5 10 -8 18 -8 8 0 16 3 18 8 3 4 -5 7 -18 7 -13 0 -21
-3 -18 -7z"/>
<path d="M940 224 c-17 -9 -20 -14 -9 -14 9 0 22 7 29 15 15 18 13 18 -20 -1z"/>
<path d="M1180 225 c8 -10 8 -14 -2 -18 -9 -4 -9 -6 2 -6 31 -1 39 14 14 26
-21 10 -24 9 -14 -2z"/>
<path d="M3418 233 c6 -2 18 -2 25 0 6 3 1 5 -13 5 -14 0 -19 -2 -12 -5z"/>
<path d="M3658 233 c6 -2 18 -2 25 0 6 3 1 5 -13 5 -14 0 -19 -2 -12 -5z"/>
<path d="M260 215 c-28 -16 -9 -21 21 -5 13 8 25 7 39 0 11 -6 20 -7 20 -2 0
6 -10 12 -22 16 -30 8 -29 8 -58 -9z"/>
<path d="M2427 223 c18 -2 50 -2 70 0 21 2 7 4 -32 4 -38 0 -55 -2 -38 -4z"/>
<path d="M375 210 c-3 -6 -23 -19 -43 -30 -26 -15 -30 -19 -12 -14 23 5 83 54
68 54 -4 0 -10 -5 -13 -10z"/>
<path d="M677 203 c-9 -10 -17 -12 -17 -6 0 8 -8 8 -29 0 -22 -8 -37 -8 -58 1
-26 11 -27 11 -9 -3 11 -8 31 -15 45 -15 21 0 23 -2 11 -11 -11 -8 -9 -9 10
-4 22 6 84 55 69 55 -2 0 -12 -8 -22 -17z"/>
<path d="M870 210 c-13 -9 -13 -10 0 -10 8 0 22 5 30 10 13 9 13 10 0 10 -8 0
-22 -5 -30 -10z"/>
<path d="M995 210 c-3 -6 -23 -19 -43 -30 -26 -15 -30 -19 -12 -14 23 5 83 54
68 54 -4 0 -10 -5 -13 -10z"/>
<path d="M1238 213 c7 -3 16 -2 19 1 4 3 -2 6 -13 5 -11 0 -14 -3 -6 -6z"/>
<path d="M1305 210 c-3 -6 -23 -19 -43 -30 -26 -15 -30 -19 -12 -14 23 5 83
54 68 54 -4 0 -10 -5 -13 -10z"/>
<path d="M1611 206 c-6 -8 -25 -19 -42 -26 -16 -7 -28 -15 -25 -17 6 -7 60 23
75 41 8 9 11 16 8 16 -2 0 -10 -6 -16 -14z"/>
<path d="M1921 206 c-6 -8 -25 -19 -42 -26 -16 -7 -28 -15 -25 -17 6 -7 60 23
75 41 8 9 11 16 8 16 -2 0 -10 -6 -16 -14z"/>
<path d="M2100 210 c0 -5 6 -10 14 -10 8 0 18 5 21 10 3 6 -3 10 -14 10 -12 0
-21 -4 -21 -10z"/>
<path d="M2178 213 c7 -3 16 -2 19 1 4 3 -2 6 -13 5 -11 0 -14 -3 -6 -6z"/>
<path d="M2234 209 c-3 -6 -25 -20 -48 -30 -22 -10 -35 -19 -28 -19 18 0 66
26 81 44 8 9 11 16 8 16 -3 0 -9 -5 -13 -11z"/>
<path d="M2544 209 c-3 -6 -25 -20 -48 -30 -22 -10 -35 -19 -28 -19 18 0 66
26 81 44 8 9 11 16 8 16 -3 0 -9 -5 -13 -11z"/>
<path d="M2854 209 c-3 -6 -25 -20 -48 -30 -22 -10 -35 -19 -28 -19 18 0 66
26 81 44 8 9 11 16 8 16 -3 0 -9 -5 -13 -11z"/>
<path d="M3164 209 c-3 -6 -25 -20 -48 -30 -22 -10 -35 -19 -28 -19 18 0 66
26 81 44 8 9 11 16 8 16 -3 0 -9 -5 -13 -11z"/>
<path d="M3465 204 c-11 -9 -33 -22 -50 -30 -16 -7 -24 -13 -17 -14 18 0 66
26 81 44 17 20 12 20 -14 0z"/>
<path d="M3775 204 c-11 -9 -33 -22 -50 -30 -16 -7 -24 -13 -17 -14 18 0 66
26 81 44 17 20 12 20 -14 0z"/>
<path d="M1488 203 c7 -3 16 -2 19 1 4 3 -2 6 -13 5 -11 0 -14 -3 -6 -6z"/>
<path d="M1818 203 c18 -2 45 -2 60 0 15 2 0 4 -33 4 -33 0 -45 -2 -27 -4z"/>
<path d="M2755 189 c7 -11 35 -12 35 -1 0 4 -9 8 -20 9 -11 1 -18 -2 -15 -8z"/>
<path d="M3070 188 c0 -4 6 -8 14 -8 8 0 17 4 20 8 2 4 -4 8 -15 8 -10 0 -19
-4 -19 -8z"/>
</g>
</svg>
